<svg id="Capa_1" enable-background="new 0 0 512.031 512.031" height="512" viewBox="0 0 512.031 512.031" width="512" xmlns="http://www.w3.org/2000/svg" xmlns:xlink="http://www.w3.org/1999/xlink"><linearGradient id="SVGID_1_" gradientUnits="userSpaceOnUse" x1="256.022" x2="256.022" y1="390.516" y2=".516"><stop offset="0" stop-color="#addcff"/><stop offset=".5028" stop-color="#eaf6ff"/><stop offset="1" stop-color="#eaf6ff"/></linearGradient><linearGradient id="SVGID_2_" gradientUnits="userSpaceOnUse" x1="256.016" x2="256.016" y1="511.516" y2="60.516"><stop offset="0" stop-color="#5558ff"/><stop offset="1" stop-color="#00c0ff"/></linearGradient><g><g><g><path d="m391.022 161.615-32.1-63.6h-27.9v-22.5c0-41.422-33.578-75-75-75s-75 33.578-75 75v22.5h-27.9l-32.1 63.6-30 47.637 30 46.264c0 74.399 60.601 135 135 135s135-60.601 135-135l30-42z" fill="url(#SVGID_1_)"/></g></g><g><g><path d="m196.022 240.516c-8.284 0-15 6.714-15 15 0 8.284 6.716 15 15 15s15-6.716 15-15c0-8.286-6.716-15-15-15zm135 211h-45c0-8.613 0-75.901 0-106.136 0-8.285-6.716-14.864-15-14.864h-30c-8.284 0-15 6.559-15 14.844v106.156c0 33.091 26.924 60 60 60h45c8.284 0 15-6.716 15-15v-30c0-8.286-6.716-15-15-15zm-271-346c-33.076 0-60 26.909-60 60.425-.469 25.073 6.579 42.358 13.857 58.726 7.939 17.9 16.143 36.387 16.143 75.85 0 24.814 21.186 45 46 45s45-20.186 45-45v-135c0-33.092-27.924-60.001-61-60.001zm392 0c-33.076 0-61 26.909-61 60v135c0 24.814 21.186 45 46 45s45-20.186 45-45c0-39.463 8.203-57.949 16.201-75.967 7.24-16.267 14.094-33.309 13.799-59.033 0-33.091-26.924-60-60-60zm-121 150c0-8.286-6.716-15-15-15s-15 6.714-15 15c0 8.284 6.716 15 15 15s15-6.717 15-15zm60-120c0-41.4-33.6-75-75-75h-120c-41.4 0-75 33.6-75 75v26.1c17.829-29.427 46.765-41.1 75-41.1 14.271 0 26.171 2.93 36.002 7.073-12.579 7.987-21.002 21.953-21.002 37.927 0 24.814 20.186 45 45 45s45-20.186 45-45c0-15.974-8.423-29.939-21.002-37.927 9.831-4.144 21.731-7.073 36.002-7.073 34.406 0 60.212 16.692 75 41.1z" fill="url(#SVGID_2_)"/></g></g></g></svg>