<svg height="512pt" viewBox="0 -14 512 512" width="512pt" xmlns="http://www.w3.org/2000/svg"><path d="m293.40625 382.25h-74.808594s-.605468 52.0625-26.261718 84.449219c-5.4375 6.859375-.390626 16.980469 8.359374 16.980469h110.613282c8.75 0 13.796875-10.121094 8.359375-16.980469-25.65625-32.386719-26.261719-84.449219-26.261719-84.449219zm0 0" fill="#bddff4"/><path d="m311.3125 483.675781h-26.964844c8.757813 0 13.796875-10.117187 8.367188-16.980469-25.660156-32.378906-26.261719-84.445312-26.261719-84.445312h26.953125s.601562 52.066406 26.261719 84.445312c5.433593 6.863282.394531 16.980469-8.355469 16.980469zm0 0" fill="#adc9e2"/><path d="m512 59.472656v331.785156c0 5.816407-4.707031 10.515626-10.511719 10.515626h-490.976562c-5.804688 0-10.511719-4.699219-10.511719-10.515626v-331.785156c0-8.699218 7.070312-15.761718 15.769531-15.761718h480.460938c8.710937 0 15.769531 7.0625 15.769531 15.761718zm0 0" fill="#32dfb7"/><path d="m44.332031 43.710938h423.335938v307.726562h-423.335938zm0 0" fill="#21c69c"/><path d="m512 59.472656v331.785156c0 5.816407-4.707031 10.515626-10.511719 10.515626h-33.179687c5.808594 0 10.515625-4.699219 10.515625-10.515626v-331.785156c0-8.699218-7.0625-15.761718-15.769531-15.761718h33.175781c8.710937 0 15.769531 7.0625 15.769531 15.761718zm0 0" fill="#21c69c"/><path d="m512 338.996094v52.261718c0 5.816407-4.707031 10.515626-10.511719 10.515626h-490.976562c-5.804688 0-10.511719-4.699219-10.511719-10.515626v-52.261718zm0 0" fill="#4e7693"/><path d="m512 338.996094v52.261718c0 5.816407-4.707031 10.515626-10.511719 10.515626h-33.179687c5.808594 0 10.515625-4.699219 10.515625-10.515626v-52.261718zm0 0" fill="#38627c"/><path d="m56.769531 10.367188v328.628906h398.460938v-328.628906c0-5.726563-4.640625-10.367188-10.367188-10.367188h-377.726562c-5.726563 0-10.367188 4.640625-10.367188 10.367188zm0 0" fill="#e3f4ff"/><path d="m431.445312 0v338.996094h23.789063v-328.628906c0-5.726563-4.644531-10.367188-10.371094-10.367188zm0 0" fill="#bddff4"/><path d="m56.761719 118.464844h398.464843v129.613281h-398.464843zm0 0" fill="#27e6fc"/><path d="m329.609375 228.703125c0 6.875-1.378906 13.414063-3.886719 19.375h-92.449218c-2.507813-5.960937-3.886719-12.5-3.886719-19.375 0-27.671875 22.433593-50.105469 50.117187-50.105469 27.671875 0 50.105469 22.433594 50.105469 50.105469zm0 0" fill="#fdb659"/><path d="m329.605469 228.703125c0 6.871094-1.371094 13.414063-3.882813 19.378906h-23.5c2.503906-5.964843 3.886719-12.507812 3.886719-19.378906 0-23.621094-16.359375-43.429687-38.367187-48.714844 3.773437-.910156 7.707031-1.390625 11.753906-1.390625 27.683594 0 50.109375 22.4375 50.109375 50.105469zm0 0" fill="#fede93"/><path d="m280.902344 248.078125h-224.140625v-44.164063l41.800781-41.804687c4.050781-4.046875 10.613281-4.046875 14.664062 0l49.734376 49.734375 33.527343-33.519531c4.046875-4.046875 10.613281-4.046875 14.660157 0zm0 0" fill="#12967e"/><path d="m280.898438 248.082031h-28.667969l-62.75-62.746093 7.003906-7.007813c4.050781-4.046875 10.613281-4.046875 14.660156 0zm0 0" fill="#21c69c"/><path d="m127.210938 222.796875c-1.976563 0-3.957032-.753906-5.464844-2.261719l-15.46875-15.46875c-3.019532-3.019531-3.019532-7.910156 0-10.929687 3.015625-3.015625 7.90625-3.015625 10.925781 0l15.472656 15.472656c3.015625 3.015625 3.015625 7.90625 0 10.925781-1.511719 1.507813-3.488281 2.261719-5.464843 2.261719zm0 0" fill="#0b7f69"/><path d="m431.445312 118.464844h23.785157v129.613281h-23.785157zm0 0" fill="#06c7f4"/><path d="m56.765625 10.367188v41.394531h398.46875v-41.394531c0-5.726563-4.644531-10.367188-10.371094-10.367188h-377.726562c-5.726563 0-10.371094 4.640625-10.371094 10.367188zm0 0" fill="#618baa"/><path d="m56.765625 10.367188v41.394531h116.96875v-51.761719h-106.597656c-5.726563 0-10.371094 4.640625-10.371094 10.367188zm0 0" fill="#32dfb7"/><path d="m431.445312 0v51.761719h23.789063v-41.394531c0-5.726563-4.644531-10.367188-10.371094-10.367188zm0 0" fill="#4e7693"/><g fill="#93c0d1"><path d="m222.058594 89.914062h-125.871094c-4.269531 0-7.726562-3.460937-7.726562-7.726562s3.457031-7.726562 7.726562-7.726562h125.871094c4.269531 0 7.726562 3.460937 7.726562 7.726562s-3.457031 7.726562-7.726562 7.726562zm0 0"/><path d="m293.949219 89.914062h-17.636719c-4.269531 0-7.726562-3.460937-7.726562-7.726562s3.457031-7.726562 7.726562-7.726562h17.636719c4.269531 0 7.726562 3.460937 7.726562 7.726562s-3.460937 7.726562-7.726562 7.726562zm0 0"/><path d="m334.570312 89.914062h-17.636718c-4.269532 0-7.726563-3.460937-7.726563-7.726562s3.457031-7.726562 7.726563-7.726562h17.636718c4.269532 0 7.726563 3.460937 7.726563 7.726562s-3.457031 7.726562-7.726563 7.726562zm0 0"/><path d="m375.191406 89.914062h-17.636718c-4.269532 0-7.726563-3.460937-7.726563-7.726562s3.457031-7.726562 7.726563-7.726562h17.636718c4.269532 0 7.726563 3.460937 7.726563 7.726562s-3.457031 7.726562-7.726563 7.726562zm0 0"/><path d="m415.8125 89.914062h-17.636719c-4.269531 0-7.726562-3.460937-7.726562-7.726562s3.460937-7.726562 7.726562-7.726562h17.636719c4.269531 0 7.726562 3.460937 7.726562 7.726562s-3.457031 7.726562-7.726562 7.726562zm0 0"/></g><path d="m94.027344 33.945312c-.015625 0-.03125 0-.046875 0-4.265625-.027343-7.746094-3.507812-7.722657-7.773437.027344-4.25 3.4375-7.683594 7.683594-7.683594h.046875l.085938.003907c4.265625.023437 7.703125 3.503906 7.679687 7.769531-.027344 4.253906-3.480468 7.683593-7.726562 7.683593zm0 0" fill="#21c69c"/><path d="m116.085938 34.007812c-4.269532 0-7.769532-3.457031-7.769532-7.726562 0-4.265625 3.417969-7.726562 7.683594-7.726562h.085938c4.269531 0 7.726562 3.460937 7.726562 7.726562 0 4.269531-3.460938 7.726562-7.726562 7.726562zm0 0" fill="#21c69c"/><path d="m138.144531 34.070312c-.015625 0-.03125 0-.046875 0-4.265625-.023437-7.746094-3.503906-7.722656-7.769531.023438-4.253906 3.4375-7.683593 7.683594-7.683593h.046875l.085937.003906c4.265625.023437 7.703125 3.503906 7.679688 7.769531-.027344 4.253906-3.480469 7.679687-7.726563 7.679687zm0 0" fill="#21c69c"/><path d="m265.332031 378.109375h-18.664062c-4.265625 0-7.726563-3.457031-7.726563-7.726563 0-4.265624 3.460938-7.726562 7.726563-7.726562h18.664062c4.265625 0 7.726563 3.460938 7.726563 7.726562 0 4.265626-3.460938 7.726563-7.726563 7.726563zm0 0" fill="#38627c"/><path d="m184.316406 309.230469h-62.207031c-5.726563 0-10.367187-4.644531-10.367187-10.371094v-8.984375c0-5.726562 4.640624-10.367188 10.367187-10.367188h62.207031c5.722656 0 10.367188 4.640626 10.367188 10.367188v8.984375c0 5.726563-4.644532 10.371094-10.367188 10.371094zm0 0" fill="#fdb659"/><path d="m389.890625 309.230469h-62.203125c-5.726562 0-10.371094-4.644531-10.371094-10.371094v-8.984375c0-5.726562 4.644532-10.367188 10.371094-10.367188h62.203125c5.726563 0 10.371094 4.640626 10.371094 10.367188v8.984375c-.003907 5.726563-4.644531 10.371094-10.371094 10.371094zm0 0" fill="#fc3e81"/><path d="m256 319.71875c-4.269531 0-7.726562-3.457031-7.726562-7.726562v-37.320313c0-4.269531 3.460937-7.726563 7.726562-7.726563s7.726562 3.457032 7.726562 7.726563v37.320313c0 4.269531-3.457031 7.726562-7.726562 7.726562zm0 0" fill="#93c0d1"/><path d="m409.988281 172.496094h-58.257812c-4.269531 0-7.726563-3.457032-7.726563-7.722656 0-4.269532 3.457032-7.726563 7.726563-7.726563h58.257812c4.269531 0 7.726563 3.457031 7.726563 7.726563 0 4.265624-3.457032 7.722656-7.726563 7.722656zm0 0" fill="#06c7f4"/><path d="m409.988281 198.070312h-11.8125c-4.269531 0-7.726562-3.457031-7.726562-7.722656 0-4.269531 3.460937-7.726562 7.726562-7.726562h11.8125c4.269531 0 7.726563 3.457031 7.726563 7.726562 0 4.265625-3.457032 7.722656-7.726563 7.722656zm0 0" fill="#06c7f4"/><path d="m409.988281 215.351562h-11.8125c-4.269531 0-7.726562-3.457031-7.726562-7.726562 0-4.265625 3.460937-7.726562 7.726562-7.726562h11.8125c4.269531 0 7.726563 3.460937 7.726563 7.726562 0 4.269531-3.457032 7.726562-7.726563 7.726562zm0 0" fill="#06c7f4"/></svg>